<svg width="96" height="96" viewBox="0 0 96 96" fill="none" xmlns="http://www.w3.org/2000/svg" role="img" aria-label="See China Route mark">
  <rect width="96" height="96" rx="22" fill="#F8F4EC"/>
  <path d="M70.2 17.8C57.6 11.3 41.6 12 29.8 20.5C16.5 30.2 12.2 49.6 20.9 64.6" stroke="#1D2828" stroke-width="5.5" stroke-linecap="round"/>
  <path d="M76.7 25.7C86.2 38.2 82.9 56.1 71.1 66.4C58.6 77.2 39.4 76.8 27.6 65.2" stroke="#1D2828" stroke-width="2.8" stroke-linecap="round"/>
  <circle cx="70.5" cy="30.2" r="7.2" fill="url(#sun)"/>
  <path d="M22 47.2C27.6 39.8 31.5 36.3 37.1 45.1C42 35.3 48.1 30.6 55.2 44.4C60.8 37.5 65.1 36.8 72.6 47.2H22Z" fill="url(#mountains)"/>
  <path d="M44.4 47.1H57.2" stroke="#1D2828" stroke-width="2.8" stroke-linecap="round"/>
  <path d="M46.6 47.2L50.9 42.9L55.5 47.2" fill="#1D2828"/>
  <path d="M48.4 49.1H54.4V57.8H48.4V49.1Z" fill="#1D2828"/>
  <path d="M46.2 57.8H57.1" stroke="#1D2828" stroke-width="2.8" stroke-linecap="round"/>
  <path d="M24.5 58.4C34.7 54.5 44.8 54.7 53.5 58.1C61 61 68.1 60.7 75.3 57.4" stroke="#445455" stroke-width="2.8" stroke-linecap="round"/>
  <path d="M31.2 66.8C40 64.2 49.2 64.5 57.5 67" stroke="#445455" stroke-width="2.2" stroke-linecap="round"/>
  <defs>
    <linearGradient id="sun" x1="63.3" y1="23" x2="77.7" y2="37.4" gradientUnits="userSpaceOnUse">
      <stop stop-color="#E86E48"/>
      <stop offset="1" stop-color="#B73A2F"/>
    </linearGradient>
    <linearGradient id="mountains" x1="23.2" y1="30.2" x2="70.2" y2="53.6" gradientUnits="userSpaceOnUse">
      <stop stop-color="#82989A"/>
      <stop offset="0.5" stop-color="#D7DFDD"/>
      <stop offset="1" stop-color="#627778"/>
    </linearGradient>
  </defs>
</svg>
